<?xml version="1.0" encoding="UTF-8" standalone="no"?>
<!-- Created with Inkscape (http://www.inkscape.org/) -->

<svg
   xmlns:dc="http://purl.org/dc/elements/1.1/"
   xmlns:cc="http://creativecommons.org/ns#"
   xmlns:rdf="http://www.w3.org/1999/02/22-rdf-syntax-ns#"
   xmlns:svg="http://www.w3.org/2000/svg"
   xmlns="http://www.w3.org/2000/svg"
   xmlns:sodipodi="http://sodipodi.sourceforge.net/DTD/sodipodi-0.dtd"
   xmlns:inkscape="http://www.inkscape.org/namespaces/inkscape"
   id="svg4900"
   version="1.1"
   inkscape:version="0.91 r13725"
   width="3302"
   height="3355"
   viewBox="0 0 3302 3355"
   sodipodi:docname="ponytweak.svg"
   inkscape:export-filename="/Users/cganoteadmin/Documents/ncgas/game/pony256.png"
   inkscape:export-xdpi="6.127739"
   inkscape:export-ydpi="6.127739">
  <metadata
     id="metadata4906">
    <rdf:RDF>
      <cc:Work
         rdf:about="">
        <dc:format>image/svg+xml</dc:format>
        <dc:type
           rdf:resource="http://purl.org/dc/dcmitype/StillImage" />
        <dc:title></dc:title>
      </cc:Work>
    </rdf:RDF>
  </metadata>
  <defs
     id="defs4904" />
  <sodipodi:namedview
     pagecolor="#ffffff"
     bordercolor="#666666"
     borderopacity="1"
     objecttolerance="10"
     gridtolerance="10"
     guidetolerance="10"
     inkscape:pageopacity="0"
     inkscape:pageshadow="2"
     inkscape:window-width="1253"
     inkscape:window-height="747"
     id="namedview4902"
     showgrid="false"
     inkscape:zoom="0.12478047"
     inkscape:cx="2582.5721"
     inkscape:cy="1530.4666"
     inkscape:window-x="148"
     inkscape:window-y="0"
     inkscape:window-maximized="0"
     inkscape:current-layer="svg4900" />
  <path
     style="fill:#ffffff;fill-rule:evenodd;stroke:#000000;stroke-width:1px;stroke-linecap:butt;stroke-linejoin:miter;stroke-opacity:1;fill-opacity:1"
     d="m 829.64516,841.94694 c 0,0 -151.94083,101.29389 -161.58787,171.23486 -9.64704,69.9411 -26.52935,258.0583 50.64694,277.3523 77.1763,19.2941 588.46927,-137.4702 610.17507,-183.2936 21.7058,-45.8235 -282.1758,-311.11698 -335.23452,-318.35226 -53.0587,-7.23528 -163.99962,53.0587 -163.99962,53.0587 z"
     id="path4729"
     inkscape:connector-curvature="0" />
  <path
     style="fill:#ffffff;fill-opacity:1;fill-rule:evenodd;stroke:#000000;stroke-width:1px;stroke-linecap:butt;stroke-linejoin:miter;stroke-opacity:1"
     d="m 2640.8763,1483.4749 c 0,0 -125.4115,28.9411 -135.0585,120.5879 -9.6471,91.6469 -12.0588,231.529 -31.3529,260.4701 -19.2941,28.9411 -50.7714,125.56 -48.2352,147.1173 4.8235,40.9998 102.0316,255.6465 243.5877,255.6464 106.1174,0 278.4545,-43.3975 277.3523,-204.9995 -1.2645,-185.3986 -94.0586,-282.1758 -110.9409,-356.9404 -12.7603,-56.5097 -24.1176,-132.6468 -69.941,-176.0584 -35.4083,-33.5447 -125.4115,-45.8234 -125.4115,-45.8234 z"
     id="path4156"
     inkscape:connector-curvature="0"
     sodipodi:nodetypes="csssssssc" />
  <path
     style="fill:#3a3865;fill-opacity:1;stroke:#000000;stroke-opacity:1"
     d="m 1115.4414,74.083984 c -147.49925,1.021579 -297.21898,15.070599 -436.57617,66.220706 -97.37812,35.67622 -185.98577,92.18926 -265.05664,158.78125 -57.72356,46.99202 -113.54463,98.50028 -152.55906,162.60057 -30.52366,49.49859 -52.82788,106.17173 -53.0003,165.00098 -0.0847,46.2733 15.63568,93.19129 47.34843,127.42384 33.89227,37.44473 79.96417,62.03273 127.69726,77.03125 59.97509,18.03074 126.09352,15.2949 183.95117,-8.89258 41.78643,-16.7825 78.82496,-43.37771 112.40973,-73.00286 95.92777,-68.34178 204.64279,-119.8352 319.86163,-144.93979 28.53285,-5.86483 57.42095,-9.50899 86.47085,-10.29173 -4.6259,-79.06149 10.861,-158.71549 41.8212,-231.62341 14.8767,-33.12188 34.8468,-66.09133 65.837,-86.20471 19.9597,-12.15388 45.4383,-15.30948 67.498,-6.06641 38.7216,14.33141 66.73,46.65174 92.3828,77.80079 24.7823,31.40404 43.0397,69.49431 43.6973,109.94802 2.4545,53.75902 -10.9035,107.47179 -4.5905,161.33425 5.8286,61.9286 29.7151,120.7719 61.2429,173.89546 21.903,43.18216 37.8785,89.37374 54.2357,135.00216 47.0163,135.73213 80.9149,276.40083 140.6303,407.51933 9.7943,21.124 20.4194,41.8661 31.9718,62.084 77.6921,-19.8059 143.0186,-71.8187 194.0098,-132.0899 79.5666,-95.3752 133.4991,-211.0736 160.3351,-332.06968 30.1064,-141.4124 16.6075,-293.80062 -48.0371,-424.02026 C 1955.9185,446.62141 1912.1152,390.22639 1859.545,343.8071 1801.0137,286.94036 1740.1356,231.36376 1669.7579,189.36589 1607.2674,151.35243 1538.3142,124.75167 1467.2996,107.70804 1352.3544,79.737386 1233.3013,74.002069 1115.4414,74.083984 Z M 3182.8535,1396.9414 c -63.37,1.3288 -127.6265,11.8208 -185.4433,38.5723 -5.0143,4.3147 -1.5442,12.2274 3.8496,14.3276 76.6778,67.7254 137.8977,155.2973 165.0231,254.7078 26.0589,92.8801 23.3922,190.9857 12.7718,286.1345 -0.7551,11.6819 -3.9415,23.6924 -2.218,35.3797 53.8094,190.1817 65.8541,393.8628 21.5988,587.2297 -5.1049,24.9371 -14.8665,49.292 -13.9454,75.1326 -1.7996,88.5726 19.8775,175.6976 47.4865,259.2274 44.5391,131.004 112.4198,254.6573 202.8906,359.6087 48.6628,55.36 107.8327,101.8733 174.7715,133.1035 63.4216,30.3476 131.7808,49.1566 200.873,61.2266 -49.0463,-147.44 -81.3085,-300.5848 -94.5703,-455.4023 -9.3618,-117.4103 -6.0867,-237.3477 24.9666,-351.4579 16.6414,-59.8839 42.6717,-117.4475 78.802,-168.1574 13.6624,-26.3146 19.3346,-55.7507 26.914,-84.146 26.7365,-113.9716 34.8661,-232.2497 24.9869,-348.8651 -11.5317,-127.8821 -49.246,-255.3774 -121.8291,-362.2535 -32.6567,-48.346 -72.4346,-91.6 -116.1645,-130.1031 -82.3255,-82.9471 -182.5662,-151.007 -295.7528,-183.2652 -50.2961,-14.4193 -102.6805,-21.6465 -155.011,-20.9999 z M 839.28711,1541.7617 c -17.43487,0.081 -33.93517,6.8011 -50.86515,9.564 -73.26682,-0.6169 -145.58338,27.1306 -201.65559,73.8949 -76.33729,61.2675 -130.43936,144.0868 -195.07881,216.4912 -23.21496,25.7037 -43.56851,53.823 -62.77467,82.5944 -14.79998,22.6502 -26.61572,47.4762 -32.81133,73.8637 -2.34756,4.9981 0.82243,13.3469 7.28711,11.7051 20.87076,-10.0932 38.81662,-25.064 57.05736,-39.1264 36.18318,-28.9885 70.39848,-62.3979 113.77064,-80.4378 22.27975,-8.3597 49.14987,-6.7322 68.59262,7.9694 2.90932,1.9466 5.70518,4.0612 8.4036,6.2901 -11.59675,13.9375 -26.04416,27.3799 -30.34766,45.6328 -0.10087,9.3919 11.40817,14.5626 19.19532,10.4278 22.48195,-5.9288 42.03963,-19.1206 62.86718,-28.9805 42.41011,-22.3279 84.21267,-47.3297 130.42774,-60.543 10.59316,0.3608 20.46934,5.2733 31.1523,5.3234 43.96107,5.0191 90.27945,-10.4395 120.74418,-42.923 41.7347,-42.3464 61.12845,-102.9429 60.97852,-161.5937 -0.51568,-36.034 -9.67689,-73.9616 -34.3418,-101.3008 -18.47155,-19.7857 -45.57711,-30.558 -72.60156,-28.8516 z"
     id="path4910-49"
     inkscape:connector-curvature="0" />
  <path
     style="fill:#30f9fd;fill-rule:evenodd;stroke:#000000;stroke-width:6;stroke-linecap:butt;stroke-linejoin:miter;stroke-miterlimit:4;stroke-dasharray:none;stroke-opacity:1;fill-opacity:1"
     d="M 1062.9844 157.27734 C 914.61907 157.73191 770.83003 198.08336 620.0918 266.89648 C 417.2452 359.49751 305.28913 675.87428 362.26562 770.70508 C 361.96393 691.40448 472.05536 314.72449 948.13086 332.85156 C 1054.908 336.91721 1145.0781 378.0293 1145.0781 378.0293 C 1188.7027 212.01934 1347.1375 365.90036 1362.7207 475.04688 C 1362.7207 475.04688 1443.7883 519.39731 1483.6719 538.76953 C 1643.2067 616.25841 1799.8229 650.93898 2001.709 487.83594 C 1692.6321 532.19909 1641.7149 303.27497 1399.5723 224.46094 C 1281.9541 177.8589 1171.2509 156.94563 1062.9844 157.27734 z M 3261.7559 1524.2148 C 3231.2865 1524.4521 3204.9813 1530.2782 3185.7188 1541.8516 C 3265.0194 1541.5499 3565.4455 1643.1686 3547.3184 2119.2441 C 3531.0558 2546.3524 3167.7998 3048.6477 3671.9316 3367.6934 C 3475.0607 3126.3977 3526.059 2855.1915 3604.873 2613.0488 C 3715.3371 2334.2501 3757.7195 2030.7579 3638.6914 1770.0215 C 3564.9 1608.3781 3381.2895 1523.2839 3261.7559 1524.2148 z "
     id="path4952" />
  <path
     style="fill:#929292;fill-opacity:1;stroke:#000000;stroke-opacity:1"
     d="m 1224.0469,316.23242 c -19.6088,-0.22224 -36.1553,13.62878 -45.5469,29.86914 -18.1291,30.96334 -24.6662,66.92141 -31.8066,101.62696 -9.9453,49.45096 -15.3882,100.31682 -33.3028,147.5 -7.2765,17.70016 -17.3919,36.88018 -36.166,44.57812 -83.74236,16.56225 -165.06466,43.86258 -243.91796,76.2793 -69.76869,29.50237 -138.68022,63.04845 -199.20312,109.08008 -27.99024,22.1678 -55.92248,47.43565 -70.04102,81.03125 -6.28781,14.64295 -7.22972,30.95974 -4.4707,46.52929 7.8756,77.73774 -12.38847,160.57254 -65.00977,219.93754 -27.19546,30.8634 -63.10118,53.9632 -102.51367,65.6543 -10.06908,33.2683 -14.47626,71.0153 0.6875,103.4843 12.30363,27.0896 40.14884,45.2759 69.50781,48 43.80106,4.9301 88.23875,-18.1866 112.07422,-54.7519 8.43021,11.9808 14.15796,28.9496 5.60742,42.3594 -11.89484,17.9154 -33.34766,25.5711 -52.29883,33.6191 -14.863,6.5999 -31.73119,10.3755 -44.22656,21.3008 -5.35284,4.5434 -4.43783,12.9144 0.62305,17.3008 14.0988,13.1652 32.9989,19.4224 50.44141,26.83 18.29143,7.651 38.28044,9.6253 57.57031,13.6094 106.25388,18.3352 217.44202,19.4211 321.50586,-11.5273 75.58891,-22.3241 145.99005,-63.7807 199.43555,-122.0371 11.1802,-4.4608 22.6376,-11.3151 34.9746,-10.1153 5.1013,2.4131 0.7956,9.3308 -0.6445,12.9278 -14.8706,26.1918 -36.5329,47.9354 -56.7051,70.0586 -33.1309,34.511 -67.4877,68.5978 -103.65235,99.5918 -3.89922,-2.6216 -4.18213,4.5459 -2.46094,8.6816 12.02276,48.9843 8.52996,100.282 -2.36719,149.1894 -12.35895,56.4004 -28.96752,113.048 -27.80078,171.4414 0.39531,45.9802 10.46322,91.5917 26.98243,134.3711 18.77043,24.309 37.07173,49.849 61.62503,68.7325 8.8806,6.7343 21.9883,12.4396 32.2402,5.207 13.0027,-9.9053 17.4756,-26.7723 23.0625,-41.3652 16.2808,-50.4769 31.2343,-102.0654 60.2598,-146.9297 18.6185,-29.6721 43.2171,-55.6664 71.6172,-76.3907 28.0391,-24.9482 55.96,-50.5666 87.9589,-70.4414 4.8745,-2.2804 10.5981,-6.9545 16.0411,-4.9277 1.2375,8.76 -4.7024,16.8332 -8.2012,24.5313 -7.4586,12.4768 -13.611,26.3379 -25.1582,35.6132 -56.874,52.8508 -112.3103,109.6929 -148.1758,179.3848 -35.8102,68.2652 -51.9147,145.0457 -58.0957,221.375 -93.2541,-83.9842 -218.58285,-128.1531 -343.25977,-131.1562 -70.57553,-1.3165 -143.03129,9.5664 -206.2461,42.3339 -35.6546,18.9118 -69.8923,46.0278 -85.28515,84.5098 -16.07829,39.8487 -10.56548,84.0779 -2.9043,125.1602 13.48632,67.4972 32.22154,134.1931 38.64844,202.8496 3.27105,32.3382 1.7117,65.0443 2.05469,97.5449 -0.65637,98.2041 -5.73072,196.409 -2.15821,294.6152 0.1621,5.5901 0.35664,11.1764 0.54492,16.7657 39.32088,15.0649 83.99869,9.3282 121.44727,-8.4395 53.98838,-25.4378 97.65877,-69.2262 130.10352,-118.7148 16.86866,-26.2973 30.96885,-54.7813 38.70507,-85.1368 -2.08354,-75.5297 -17.93453,-150.3121 -44.28515,-221.0293 -12.52613,-36.2089 -29.5721,-71.1658 -36.82031,-109 -5.04605,-24.4044 1.07772,-51.1162 17.76367,-69.8476 10.80892,-12.5561 28.96008,-14.9105 44.22656,-10.709 34.04467,9.1899 63.02297,30.3055 94.39063,45.6152 63.34086,32.7703 121.02021,75.1651 182.90232,110.5411 47.8165,27.2114 98.0765,53.3208 153.0547,61.8222 36.4727,5.7923 75.852,-0.078 106.2852,-21.9687 22.0626,-15.0993 38.3627,-36.8056 52.4218,-59.1914 32.7199,-44.0079 70.2552,-84.4483 108.0938,-124.1817 19.6781,-19.697 38.7281,-40.437 61.4043,-56.7637 1.5203,-0.8712 6.3492,-4.3563 4.6738,-0.4414 -7.7169,20.4635 -23.6515,36.6522 -31.2519,57.3106 -11.9521,27.3711 -15.3584,60.1957 -1.4649,87.5351 16.2941,32.6588 48.6209,53.3591 80.7344,68.3028 59.5235,26.6685 124.407,38.5133 188.7734,46.414 66.9441,7.8635 134.5126,8.6893 201.8321,7.2403 71.0515,-1.8687 142.5976,-12.3931 208.8593,-38.9883 56.729,-22.2889 109.3131,-53.798 159.4258,-88.2207 l 28.864,24.8638 c 58.0637,120.0992 147.9855,120.1412 228.3528,225.6206 31.3909,41.8334 62.7438,84.1478 86.5781,130.873 -11.8967,49.1419 -34.287,94.8637 -56.4589,140.0293 -52.3852,104.0735 -114.0214,203.0619 -171.9571,304.0684 -26.2268,48.577 -49.4384,99.4979 -61.6758,153.5508 -3.7952,19.8168 -7.443,41.2588 -0.1875,60.75 159.2136,-2.9204 318.4271,-5.8442 477.6407,-8.7657 25.4708,-184.7471 47.898,-370.0987 81.1367,-553.5586 8.2346,-44.13 17.0697,-88.2657 30.1445,-131.1289 7.4051,-37.9026 -2.5671,-76.7616 -18.25,-111.2871 -19.7674,-44.9314 -47.2843,-88.3945 -50.5586,-138.5097 -2.9365,-39.0507 11.1082,-77.5106 31.9551,-110.1231 17.8278,-28.4955 41.4838,-52.6851 59.6914,-80.9609 61.9099,-91.8803 104.0426,-196.8746 124.502,-305.6817 20.7299,-111.4836 16.5818,-229.7557 -25.7442,-335.9082 -18.9554,-47.3596 -44.9128,-92.1844 -77.9492,-131.1054 -59.7213,-61.6636 -136.0411,-108.2143 -220,-127.7325 -95.4769,-22.8781 -196.4467,-11.8138 -288.8203,19.0567 -132.8579,43.9286 -260.6286,103.3929 -396.6094,137.7851 -87.9306,22.0824 -181.3766,32.2547 -270.375,9.5977 -63.2564,-15.4653 -121.9521,-49.737 -164.8066,-98.9297 -55.1099,-62.2767 -85.5724,-141.4518 -109.3633,-219.9902 -45.8383,-126.9893 -72.3654,-261.34227 -133.2891,-382.66019 -24.6082,-49.2706 -55.6687,-95.45582 -93.2539,-135.74414 -15.7964,-26.35561 -15.3881,-58.12567 -12.2578,-87.55469 6.9303,-61.36822 27.1038,-122.21795 20.4512,-184.60742 -3.5261,-36.02691 -20.0139,-70.80814 -47.0586,-95.09961 -21.3057,-18.05726 -44.6643,-36.23769 -72.668,-41.9043 -3.6777,-0.65198 -7.4164,-0.9842 -11.1523,-0.92383 z m -293.31448,492.4668 c 113.48948,-2.65828 208.01408,81.87054 211.75388,189.36133 l -206.6445,6.45315 206.7559,0 c 0,107.5486 -132.4422,181.345 -245.96187,182.2308 -113.5201,0.8863 -211.10708,-7.8335 -212.9771,-115.3679 C 681.7885,963.84244 817.24342,811.35655 930.73242,808.69922 Z M 2662.8359,1471.5488 c 50.1391,-0.381 102.213,18.9576 135.7188,57.3574 24.8903,27.7915 37.6698,64.5049 41.2051,101.2637 6.4805,48.4388 20.9018,95.7273 42.7832,139.4336 14.9685,29.9027 29.5363,59.953 42.3886,90.8281 24.7686,55.374 50.8705,112.514 54.6914,173.8047 1.5098,28.1197 -1.2783,57.3693 -12.4941,83.6621 -26.9507,58.6056 -71.0853,111.1447 -129.8867,139.4961 -60.232,29.7152 -130.8519,32.4837 -195.0645,15.7305 -78.0354,-20.3502 -150.1286,-66.928 -197.1875,-132.9277 -33.9954,-47.488 -52.3097,-107.5508 -42.5488,-165.7832 5.6169,-36.6535 22.0744,-70.9993 43.293,-101.1602 17.5937,-26.7131 30.7117,-56.8656 34.0722,-88.9043 3.9459,-36.488 5.5123,-73.1976 9.1055,-109.7266 1.225,-13.8425 2.8655,-27.642 1.3984,-41.5195 -1.4563,-41.9611 14.1645,-84.6304 45.2715,-113.5742 33.8708,-32.2364 81.1982,-47.8732 127.2539,-47.9805 z m -1676.28902,59.377 c 0.005,-0.023 0.0408,-0.02 0.11718,0.023 1.25756,1.6263 -0.15396,0.1404 -0.11718,-0.023 z m -432.50586,455.9707 c -0.95178,9.5094 5.42571,0.1932 0,0 z m 905.10548,483.3574 c -29.1211,-0.057 -54.8587,17.4772 -74.002,38.0469 -4.7575,5.4493 -11.4163,10.2628 -11.0039,18.2246 -4.1723,37.3442 6.9369,74.1458 16.7227,109.7519 21.3352,71.768 44.6932,144.2912 47.3222,219.5684 2.4022,128.8952 -5.7765,257.9747 -23.3066,385.6797 -9.0587,64.7657 -20.7096,129.2491 -36.6172,192.709 147.487,-1.0183 294.974,-2.0391 442.461,-3.0567 12.9209,-120.0474 -3.4979,-240.8939 -25.8829,-358.8047 -24.2625,-128.4908 -58.4203,-255.2903 -75.2128,-384.9746 -5.6153,-44.9953 -8.8272,-90.3989 -6.7774,-135.6953 -51.0407,-2.5364 -100.1384,-20.0012 -145.5,-42.7383 -31.446,-14.6986 -62.1879,-33.8044 -97.2734,-38.1816 -3.6292,-0.3862 -7.2799,-0.577 -10.9297,-0.5293 z"
     id="path4910-4"
     inkscape:connector-curvature="0"
     sodipodi:nodetypes="cccccccccccccccccccccccccccccccccccccccccccccccccccccccccccccccccccccccccccccccccccccccccccccccccccccscccssscccccccccccccccccccccccccccccccccccc" />
  <path
     style="fill:#161917;fill-opacity:1;stroke:#000000;stroke-opacity:1"
     d="m 304.57338,1999.47 c 92.4519,-53.8881 171.46302,-178.1054 258.43712,-97.1555 -113.41209,126.6477 91.5006,-25.048 172.73834,-41.3578 237.26175,67.0147 278.90556,-383.337 59.35681,-303.0131 -204.95101,-2.9336 -292.5744,176.626 -413.8805,306.5482 -30.05745,41.824 -66.11422,83.0178 -76.65177,134.9782 z m 250.72917,-10.7126 -1.83532,0.057 z m 349.27083,-202.8368 -1.95522,-0.5734 z m -349,-931.99976 -1.95522,-0.57345 z M 2523.0751,1697.6439 c 17.5036,2.3394 42.6866,-17.0376 85.942,-34.4507 0,0 6.9635,-105.0253 -51.7231,-82.9984 -58.6867,22.0269 -34.2189,117.4491 -34.2189,117.4491 z m -34.5535,-50.0546 c -20.6604,-217.2917 323.0759,-246.932 351.3432,-26.8449 14.1337,110.0436 47.9841,148.5299 77.922,219.6268 29.938,71.0969 87.4166,173.3066 52.9494,273.0022 -169.1882,375.9062 -721.8891,59.8391 -535.6382,-228.7178 44.3177,-64.774 41.6786,-90.7362 47.0976,-161.431 z m 390.0655,498.1185 c 72.097,-133.3343 -9.9435,-234.5592 -63.411,-298.7572 -53.4676,-64.1979 -63.4598,-108.4562 -88.6327,-125.1997 -45.7394,-30.423 -140.9984,-42.9122 -179.1867,11.8124 -28.8574,6.1365 -33.1437,62.5322 -62.3752,131.6018 -29.2316,69.0696 -48.9646,98.1774 -49.4364,139.1817 -2.3599,205.1142 183.7567,239.0921 264.9507,230.8316 80.0522,-8.1444 139.8024,-18.6601 178.0913,-89.4706 z m -125.8153,-441.0544 c 14.7543,-77.4986 1.7097,-121.4267 -53.1622,-126.0707 -51.5834,-4.3657 -41.5937,87.7699 -41.5937,87.7699 35.7597,8.0545 94.7559,38.3008 94.7559,38.3008 z M 721.75281,1170.3489 c -45.74717,-55.393 14.33638,11.4178 115.51952,-11.3383 -133.22216,-71.9644 -71.21962,-256.04525 -133.59642,-130.1539 -24.77419,73.8756 -99.83896,156.2375 -53.68663,21.5917 38.0097,-175.13167 233.58287,-327.97864 410.57742,-241.00712 224.91,124.77772 71.3307,403.85442 -149.73435,397.09382 -28.49285,7.2318 -142.28793,-8.9661 -189.07954,-36.1862 z m 157.07411,-25.2642 c 94.85232,46.9748 231.21378,-39.7057 212.60128,-132.9874 -9.5909,56.4772 -92.03445,109.2375 -165.10079,91.7595 -109.16697,-26.1135 -120.83727,-180.71601 -55.82121,-250.27709 -159.23318,92.73448 -81.94487,246.80169 8.32072,291.50499 z m 23.79486,-95.0595 c 94.37209,-80.66795 -97.45913,-102.18449 0,0 z m 56.70508,-71.41671 c 139.22674,-5.8689 -58.34649,-222.72515 -73.67399,-68.89473 -0.14095,19.59749 -1.41587,75.90362 73.67399,68.89473 z M 1142.6582,742.11182 c 51.1109,-82.55701 72.0987,-156.24812 78.5093,-297.93044 70.9567,85.6213 45.2824,269.39957 -78.5093,297.93044 z m 1861.4777,697.62058 c 218.2257,192.9731 199.6877,408.3942 180.1609,579.8216 60.4885,213.9944 68.4121,433.2277 9.9118,643.9219 -12.7129,145.3658 61.6014,372.0397 168.5048,532.3813 92.4667,138.6883 192.8852,248.2279 436.5056,293.944 0,0 -222.6215,-640.9021 12.7177,-965.9348 26.0941,-36.0391 183.2768,-600.0992 -177.6157,-912.6013 -318.5292,-325.211 -630.1851,-171.5327 -630.1851,-171.5327 z M 1818.281,3429.1104 c 31.644,-295.1746 -118.9455,-626.6955 -108.1428,-875.6265 -168.8413,-10.7858 -231.959,-153.7708 -333.5945,-33.3664 -15.3777,78.5651 61.456,200.164 63.3097,347.2707 2.5283,200.6486 -21.1925,410.902 -59.6714,564.7494 z m 517.6818,49.143 c -2.4893,-56.3245 19.1083,-184.3339 43.1341,-231.4132 97.8798,-219.8664 78.8667,-118.1979 238.716,-450.2182 -4.825,-95.2409 -155.156,-237.2553 -246.95,-345.183 -201.0232,138.2312 -442.0724,136.9438 -605.4932,126.3029 3.1601,45.4775 -20.6432,156.3472 32.0145,306.23 53.1939,151.4088 109.7957,486.0742 64.9455,600.1971 l -540.5994,0.1757 c -35.9099,-41.7256 16.3567,-82.8415 39.745,-278.1818 22.2264,-185.6356 41.4991,-432.128 -20.6002,-610.5289 -49.8854,-34.3834 -20.9773,-49.1251 -57.5059,-28.3711 -58.4881,65.4249 -273.6248,-35.2698 -514.48652,-209.3757 -67.51586,72.6227 77.30607,136.2448 71.62414,336.7139 -10.33609,169.0724 -233.59875,361.1496 -370.34715,263.5339 -26.5136,-160.5626 -16.0913,-216.9653 -21.80374,-375.961 -71.68148,-340.8534 -69.11038,-345.8867 -9.16301,-462.7214 67.31765,-63.2631 260.07563,-172.1709 440.73684,-95.0466 73.49132,-130.7828 -161.1432,-164.8268 -238.54425,-68.0583 -160.40292,70.2434 -154.67656,37.6914 -154.90375,-26.9324 -90.58293,18.9765 -198.12458,210.1282 -265.45939,153.69 68.15469,-228.4306 244.77424,-379.9284 410.07836,-542.3802 C 445.47302,1563.002 206.46865,1268.6397 405.93321,1178.8953 557.45394,1103.0916 555.57338,853.92084 358.63459,864.32828 81.49501,780.18987 154.85836,511.34322 311.17691,333.90059 566.44153,22.918647 1033.7105,7.5647943 1376.943,46.10335 c 343.2325,38.538557 666.9203,332.24276 712.4277,642.10479 5.8916,234.92781 -30.8725,534.03726 -248.6005,660.83046 -129.5142,75.4222 -72.6644,176.4073 64.5522,185.9681 324.787,22.63 575.6409,-241.5233 900.9564,-184.9385 187.2098,70.3716 236.3028,-20.4186 448.0669,4.7998 211.7641,25.2184 334.732,117.729 478.3244,259.5096 226.7864,223.9248 259.4935,837.0644 101.6718,1025.1912 -168.0372,200.3038 44.4815,929.8739 44.4815,929.8739 0,0 -167.1305,-41.5647 -246.1601,-73.8277 -76.8213,-31.3614 -203.7967,-107.7182 -203.7967,-107.7182 -196.9096,-198.2781 -378.2102,-600.0863 -287.4676,-860.0332 51.1025,-135.6111 59.3892,-359.6895 1.564,-440.7238 -17.8722,225.1731 -231.2014,300.1038 -165.093,466.3388 111.7711,152.231 4.018,367.7321 -12.9258,534.1585 -11.3437,111.4203 -46.2622,294.3168 -32.2409,393.1693 -177.3551,-7.8586 -399.2544,1.11 -596.7405,-2.553 z m 529.9759,-57.0988 c 18.7603,-132.5543 71.1184,-562.7061 110.5576,-680.4437 28.2321,-141.0837 -160.2204,-216.1059 -9.7029,-399.5499 150.5175,-183.444 263.9749,-558.5446 56.4823,-812.7587 -153.2578,-158.3296 -346.329,-167.9276 -521.5371,-105.9727 -206.2695,69.4677 -421.2443,182.3465 -620.0426,150.349 -198.7983,-31.9974 -267.5641,-183.804 -310.6051,-326.5137 -63.8996,-176.4585 -92.3261,-376.29769 -226.0424,-517.90788 -56.6914,-90.49263 74.715,-264.7336 -40.5096,-369.12853 -199.6633,-170.84333 -127.6236,243.92637 -227.3938,282.42833 -183.40756,34.7196 -536.0383,179.12103 -516.98833,303.59146 15.90044,132.17892 -47.68822,258.14822 -167.11307,294.58312 -48.70866,162.5103 118.51523,189.5561 180.60907,91.5453 72.43793,101.9755 -216.07783,77.9134 -27.53264,147.522 192.14003,43.3195 420.18912,32.6983 565.04717,-124.1278 139.86,-64.832 -126.91038,183.0692 -126.51838,177.4959 41.33078,165.1174 -80.07554,253.6538 -2.36596,459.1073 155.60524,208.6768 66.99294,-61.6975 244.37804,-189.6784 50.162,-45.9948 159.1392,-137.5963 83.1984,-21.4209 -116.6751,108.1965 -197.7166,197.436 -214.3345,411.3034 -168.96904,-154.9713 -431.94322,-164.192 -564.60029,-83.1189 -149.38269,91.295 -47.18172,217.699 -32.42719,421.9892 2.47923,165.8609 -6.74243,231.8865 -1.29378,388.1082 120.9452,43.7955 256.89393,-98.0487 286.30511,-210.7904 -7.00958,-214.0606 -105.40173,-304.0157 -77.93206,-375.5292 29.12281,-75.8171 92.30538,-23.387 156.44048,8.871 144.30183,72.5795 370.62793,287.4254 487.68813,97.6875 38.5168,-59.255 250.5066,-282.7313 159.9655,-147.5079 -104.9919,188.5919 234.5597,222.3964 348.9149,225.6176 197.9537,5.5761 302.9034,-7.0338 475.6006,-125.5936 -4.1187,-48.0138 -16.0249,-42.3593 -11.8567,-97.2619 29.2392,126.0363 269.1433,297.541 360.1017,479.1782 -23.0671,105.1737 -153.7242,315.3863 -220.9654,431.4857 -45.5181,78.5921 -85.8723,183.3702 -70.0336,225.1507 z M 306.42405,784.79907 c 120.79525,77.468 254.11897,60.98496 363.06108,-39.11784 110.17671,-81.46063 273.84722,-155.39217 408.66627,-160.78749 -9.6151,-154.71843 94.3724,-492.322352 286.8309,-237.08804 103.2129,136.87873 -36.9151,217.12976 97.4679,441.12658 82.7078,172.23971 128.8809,433.30852 222.7479,597.95822 165.6784,-45.3476 288.0794,-250.8922 332.7273,-416.32593 60.4763,-217.18753 12.8077,-467.64964 -160.044,-618.85328 C 1687.497,183.68606 1543.4989,80.103741 1125.7855,80.599831 708.07197,81.095922 543.08562,194.97252 374.29381,342.28838 205.502,489.60424 156.40203,688.58745 306.42405,784.79907 Z"
     id="path4910"
     inkscape:connector-curvature="0"
     sodipodi:nodetypes="ccccccccccccccccczccssccccssscsssscscccccccccscscscccccccccccscscccccscccccccsccsccccccccccccccczcssczsscsccccscccczcczccccccccccccccscccssccscccsccsccscccczzs" />
  <path
     style="fill:#fdce30;fill-opacity:1;fill-rule:evenodd;stroke:#000000;stroke-width:26.5;stroke-linecap:butt;stroke-linejoin:miter;stroke-miterlimit:4;stroke-dasharray:none;stroke-opacity:1"
     d="m 2558.7417,2236.6096 c -48.5992,29.6885 -227.2669,-101.8114 -205.4619,-144.0351 11.7062,-22.6681 63.5449,-12.7089 63.5449,-12.7089 -15.0497,-42.9949 -33.7547,-96.2804 -10.5907,-108.0264 28.5871,-14.4961 82.6083,69.8994 82.6083,69.8994 0,0 15.4729,-66.6653 40.2452,-65.6631 50.0148,2.0234 66.0003,238.3308 29.6542,260.5341 z"
     id="path4972"
     inkscape:connector-curvature="0"
     sodipodi:nodetypes="sscscss" />
  <path
     style="fill:#fdce30;fill-opacity:1;fill-rule:evenodd;stroke:#000000;stroke-width:26.5;stroke-linecap:butt;stroke-linejoin:miter;stroke-miterlimit:4;stroke-dasharray:none;stroke-opacity:1"
     d="m 2767.8826,2227.7988 c 48.5992,29.6885 227.2669,-101.8114 205.4619,-144.0351 -11.7062,-22.6681 -63.5449,-12.7089 -63.5449,-12.7089 15.0497,-42.9949 33.7547,-96.2804 10.5907,-108.0264 -28.5871,-14.4961 -82.6083,69.8994 -82.6083,69.8994 0,0 -15.4729,-66.6653 -40.2452,-65.6631 -50.0148,2.0234 -66.0003,238.3308 -29.6542,260.5341 z"
     id="path4972-7"
     inkscape:connector-curvature="0"
     sodipodi:nodetypes="sscscss" />
  <path
     style="fill:#fdce30;fill-opacity:1;fill-rule:evenodd;stroke:#000000;stroke-width:10.19999981;stroke-linecap:butt;stroke-linejoin:miter;stroke-miterlimit:4;stroke-dasharray:none;stroke-opacity:1"
     d="m 2509.4666,1759.6846 c 0.03,20.746 84.4506,63.9519 119.403,66.0784 35.9891,2.1896 178.2645,-53.0353 124.1859,-93.6145 -52.2641,-39.2176 -110.9747,-60.6931 -137.6807,-50.836 -63.4203,23.4083 -105.9689,36.3946 -105.9082,78.3721 z"
     id="path4972-7-2"
     inkscape:connector-curvature="0"
     sodipodi:nodetypes="sssss" />
  <path
     style="opacity:1;fill:#000000;fill-opacity:0.92941176;fill-rule:evenodd;stroke:#303030;stroke-width:0;stroke-linecap:round;stroke-linejoin:round;stroke-miterlimit:22.70000076;stroke-dasharray:none;stroke-dashoffset:0;stroke-opacity:1"
     id="path4935-0-4"
     ry="19.470982"
     rx="17.973213"
     cy="1659.5269"
     cx="2573.165"
     d=""
     inkscape:connector-curvature="0" />
  <ellipse
     style="opacity:1;fill:#000000;fill-opacity:0.92941176;fill-rule:evenodd;stroke:#303030;stroke-width:0;stroke-linecap:round;stroke-linejoin:round;stroke-miterlimit:22.70000076;stroke-dasharray:none;stroke-dashoffset:0;stroke-opacity:1"
     id="path4935-0-1"
     ry="27.943636"
     rx="25.794127"
     cy="1662.5872"
     cx="2563.6299" />
  <ellipse
     style="opacity:1;fill:#000000;fill-opacity:0.92941176;fill-rule:evenodd;stroke:#303030;stroke-width:0;stroke-linecap:round;stroke-linejoin:round;stroke-miterlimit:22.70000076;stroke-dasharray:none;stroke-dashoffset:0;stroke-opacity:1"
     id="path4935-0-1-5"
     ry="30.0618"
     rx="27.749355"
     cy="1660.4691"
     cx="2704.7322" />
  <path
     style="fill:none;fill-rule:evenodd;stroke:#000000;stroke-width:11.39999962;stroke-linecap:butt;stroke-linejoin:miter;stroke-miterlimit:4;stroke-dasharray:none;stroke-opacity:1"
     d="m 2539.7134,1755.5093 c 25.6201,23.1764 97.853,76.6976 188.4474,-6.0734"
     id="path5049"
     inkscape:connector-curvature="0"
     sodipodi:nodetypes="cc" />
  <path
     style="fill:#fdce30;fill-opacity:1;stroke:#000000;stroke-width:0;stroke-miterlimit:4;stroke-dasharray:none;stroke-opacity:1"
     d="m 870.63477,849.97656 c -38.3463,22.08634 -73.4281,54.85316 -86.89258,98.13282 -14.338,44.56394 -2.21765,93.93962 23.45508,131.94922 22.31535,32.9703 54.1419,61.3686 92.78906,73.043 51.32873,14.4683 107.89127,-2.1814 148.37237,-35.4754 27.8895,-22.844 49.6374,-57.1036 47.8308,-94.2558 -0.3607,-6.6049 -1.0998,-13.2803 -3.6426,-19.4466 -3.3341,12.1138 -6.3032,24.5917 -13.4317,34.9434 -23.1864,35.6794 -64.1227,58.1936 -106.18433,63.5559 -38.41269,5.1594 -80.37877,-8.7343 -105.56873,-39.3179 -32.7867,-39.2535 -39.95281,-94.93566 -28.49009,-143.48714 5.90225,-24.96792 17.51196,-48.47647 34.76387,-67.41949 3.89968,-5.67762 2.06579,-3.77368 -3.00115,-2.22201 z"
     id="path4910-6"
     inkscape:connector-curvature="0" />
</svg>
